<svg version="1.1" id="Layer_1" xmlns="http://www.w3.org/2000/svg" xmlns:xlink="http://www.w3.org/1999/xlink" x="0px" y="0px"
	 width="100%" viewBox="0 0 500 500" enable-background="new 0 0 500 500" xml:space="preserve">
<path fill="none" opacity="1.000000" stroke="none" 
	d="
M297.000000,501.000000 
	C198.000031,501.000000 99.500046,501.000000 1.000053,501.000000 
	C1.000035,334.333405 1.000035,167.666794 1.000018,1.000142 
	C167.666565,1.000095 334.333130,1.000095 500.999756,1.000047 
	C500.999847,167.666519 500.999847,334.333038 500.999939,500.999786 
	C433.166656,501.000000 365.333344,501.000000 297.000000,501.000000 
M56.243996,223.750839 
	C56.243996,223.750839 56.504635,223.834808 56.853573,224.352859 
	C57.882309,225.600235 58.911049,226.847595 59.971912,228.028290 
	C59.971912,228.028290 59.905216,228.060349 60.174206,228.673630 
	C61.435337,230.153931 62.696468,231.634232 64.229797,233.727859 
	C71.115059,240.832733 78.000320,247.937622 85.169044,255.668594 
	C86.500404,257.608826 87.831772,259.549042 89.245338,261.751892 
	C89.245338,261.751892 89.507462,261.835754 89.913132,262.465729 
	C92.041969,267.530487 90.169418,271.148438 87.321915,275.825165 
	C74.361290,297.111694 69.677887,320.244843 75.483521,344.865936 
	C77.838646,354.853790 81.429108,364.433960 88.244804,372.751434 
	C88.244804,372.751434 88.506493,372.835419 88.868469,373.378784 
	C90.564842,375.624023 92.261215,377.869263 94.221642,380.719696 
	C96.776276,383.160614 99.330910,385.601532 102.155167,388.645966 
	C103.825928,389.931030 105.496689,391.216095 107.249290,392.757111 
	C107.249290,392.757111 107.506378,392.835419 107.903534,393.337830 
	C120.199936,403.528900 134.084808,409.759583 150.031265,412.223358 
	C170.441727,415.376892 187.991058,410.220215 203.024353,396.403412 
	C213.282135,386.975739 220.920898,375.378082 226.829605,362.964752 
	C235.334839,345.096588 242.734589,326.702209 250.773422,308.146362 
	C251.118774,308.477173 252.469513,309.193665 252.907166,310.278503 
	C258.012695,322.933838 262.446106,335.890961 268.147003,348.266235 
	C273.095123,359.007324 279.437134,369.106293 285.244781,379.751434 
	C285.244781,379.751434 285.506439,379.835419 285.868225,380.378296 
	C287.558746,382.617188 289.249268,384.856049 290.971893,387.028229 
	C290.971893,387.028229 290.905212,387.060303 291.174164,387.673584 
	C292.435303,389.153900 293.696472,390.634216 295.224854,392.723328 
	C301.298706,397.412079 306.884613,403.000122 313.542419,406.612640 
	C330.226196,415.665314 347.826080,414.589172 365.440460,409.193909 
	C377.162781,405.603363 387.087585,399.094391 396.538147,391.336487 
	C406.253693,383.361023 414.190826,374.030060 419.813293,363.044403 
	C429.646912,343.830658 431.425079,323.458038 425.954956,302.561554 
	C423.270416,292.306274 420.232697,282.053925 413.135925,273.867554 
	C410.704254,271.062531 409.504791,268.547882 410.738159,264.759369 
	C415.780518,258.717804 420.815979,252.670456 425.866943,246.636047 
	C432.712616,238.457474 439.669556,230.369690 446.401001,222.098297 
	C458.745972,206.929260 468.342651,190.007294 476.126312,172.193863 
	C480.635803,161.873566 483.324982,150.757889 486.976013,139.355576 
	C487.021637,138.918335 487.067261,138.481079 487.721313,137.713776 
	C487.758636,136.809235 487.795990,135.904678 487.973694,134.269379 
	C488.020111,133.527527 488.066528,132.785690 488.721313,131.713776 
	C488.758636,130.809235 488.795990,129.904678 488.973267,128.079193 
	C489.749023,119.043968 487.840881,110.434807 484.971222,101.243980 
	C482.801544,97.136101 480.805176,92.921661 478.376617,88.973015 
	C477.410034,87.401398 475.487183,86.417908 473.285583,85.012245 
	C469.560638,83.326233 465.835663,81.640221 461.801117,79.304405 
	C459.904022,78.201439 458.048553,76.241127 456.102539,76.146729 
	C448.447937,75.775368 440.683533,75.276237 433.109314,76.137825 
	C417.354370,77.929970 402.718292,83.793083 389.517578,92.267838 
	C376.508728,100.619415 363.937225,109.820786 352.038727,119.691841 
	C336.150970,132.872375 320.679840,146.626389 305.837494,160.969894 
	C296.418701,170.072144 288.181122,180.462265 279.930786,190.691772 
	C269.172089,204.031387 259.904877,218.357758 253.712830,234.495407 
	C253.191940,235.852951 251.686096,236.832565 250.239075,238.427200 
	C249.230011,236.251053 248.706802,234.889832 247.998886,233.632599 
	C241.963989,222.914856 235.895538,212.216034 229.755402,201.248825 
	C229.755402,201.248825 229.493500,201.164551 229.131744,200.621613 
	C227.441223,198.382751 225.750702,196.143875 224.028107,193.971680 
	C224.028107,193.971680 224.094772,193.939621 223.845703,193.350876 
	C222.842651,192.070541 221.839600,190.790192 220.755692,189.248749 
	C220.755692,189.248749 220.495438,189.165222 220.145401,188.645264 
	C219.111069,187.391998 218.076736,186.138733 216.767181,184.268906 
	C213.175766,180.012146 209.824173,175.521622 205.946625,171.543808 
	C195.555969,160.884460 185.123505,150.251907 174.341629,139.993408 
	C168.308426,134.253052 161.547455,129.277588 154.836304,123.343933 
	C153.243576,122.196884 151.650864,121.049835 150.028625,119.968658 
	C150.028625,119.968658 150.094650,119.939499 149.821503,119.327286 
	C148.233719,118.185791 146.645920,117.044289 145.028625,115.968658 
	C145.028625,115.968658 145.094650,115.939499 144.821503,115.327293 
	C143.233704,114.185791 141.645920,113.044296 140.028625,111.968658 
	C140.028625,111.968658 140.094650,111.939507 139.813126,111.317848 
	C138.734818,110.285927 137.745209,109.137291 136.564545,108.240059 
	C124.079102,98.751709 111.002121,90.240135 96.475037,84.141808 
	C80.119865,77.276077 63.383217,72.608948 45.434643,76.033264 
	C31.747345,78.644585 22.338581,86.672874 17.008938,99.498672 
	C10.932627,114.121315 11.962043,129.115723 15.559979,143.946533 
	C19.999634,162.246933 27.689594,179.340088 37.279430,195.499908 
	C42.167709,203.737122 47.843197,211.507187 53.244125,219.750809 
	C53.244125,219.750809 53.505547,219.835114 53.835892,220.321060 
	C54.611637,221.377121 55.387383,222.433167 56.243996,223.750839 
z"/>
<path fill="#FF2E43" opacity="1.000000" stroke="none" 
	d="
M101.885544,388.042480 
	C99.330910,385.601532 96.776276,383.160614 94.065567,380.039734 
	C93.112518,376.353516 92.743805,372.992615 88.506493,372.835419 
	C88.506493,372.835419 88.244804,372.751434 88.291534,372.248962 
	C86.991859,368.598175 85.651428,365.447266 84.298050,362.301941 
	C77.640839,346.830109 75.103317,330.737793 78.366119,314.161652 
	C81.144592,300.046051 83.807610,285.780273 94.501259,274.706940 
	C98.126778,270.952698 94.898743,263.461151 89.507462,261.835754 
	C89.507462,261.835754 89.245338,261.751892 89.291199,261.249115 
	C89.338646,257.685791 88.351135,255.397171 84.885582,255.042511 
	C78.000320,247.937622 71.115059,240.832733 64.068977,233.047028 
	C62.573845,230.930908 61.239529,229.495636 59.905212,228.060349 
	C59.905216,228.060349 59.971912,228.028290 59.934006,227.689423 
	C58.765614,226.178635 57.635124,225.006714 56.504639,223.834808 
	C56.504635,223.834808 56.243996,223.750839 56.286629,223.259888 
	C55.388020,221.790985 54.446781,220.813049 53.505547,219.835114 
	C53.505547,219.835114 53.244125,219.750809 53.291428,219.253113 
	C52.721592,217.085648 52.351700,215.265625 51.444260,213.772247 
	C47.639820,207.511169 43.440639,201.481430 39.809799,195.124908 
	C26.539698,171.892914 15.580014,147.790573 17.099245,120.196266 
	C18.682703,91.435425 35.761116,76.599365 64.140335,79.326248 
	C87.858887,81.605293 108.718552,91.972870 128.240906,105.229050 
	C131.984787,107.771248 136.132980,109.718033 140.094650,111.939507 
	C140.094650,111.939507 140.028625,111.968658 140.073669,112.310089 
	C141.777344,113.747520 143.436005,114.843506 145.094650,115.939499 
	C145.094650,115.939499 145.028625,115.968658 145.073669,116.310089 
	C146.777344,117.747520 148.436005,118.843506 150.094650,119.939499 
	C150.094650,119.939499 150.028625,119.968658 150.073929,120.310791 
	C151.784286,121.754440 153.449356,122.855957 155.114410,123.957481 
	C161.547455,129.277588 168.308426,134.253052 174.341629,139.993408 
	C185.123505,150.251907 195.555969,160.884460 205.946625,171.543808 
	C209.824173,175.521622 213.175766,180.012146 216.929810,184.950470 
	C218.226776,186.809769 219.361099,187.987488 220.495438,189.165222 
	C220.495438,189.165222 220.755692,189.248749 220.711731,189.742386 
	C221.810104,191.470551 222.952438,192.705093 224.094772,193.939621 
	C224.094772,193.939621 224.028107,193.971680 224.064972,194.314667 
	C224.886642,197.665512 225.264816,201.010300 229.493500,201.164551 
	C229.493500,201.164551 229.755402,201.248825 229.708374,201.747742 
	C230.183746,203.778397 230.491791,205.429810 231.267960,206.819824 
	C233.782333,211.322769 236.685165,215.618576 239.036926,220.200226 
	C242.449982,226.849487 245.408264,233.731934 248.808823,240.388077 
	C249.534119,241.807755 251.295959,243.512680 252.632385,243.558273 
	C253.788055,243.597672 255.382156,241.662262 256.134186,240.253708 
	C257.455353,237.779129 258.163239,234.986359 259.332642,232.420105 
	C271.606415,205.484772 290.652740,183.480682 311.089905,162.668304 
	C322.482086,151.066986 334.542389,140.025055 347.065765,129.653702 
	C366.102417,113.888306 384.477081,97.010010 408.231445,88.054871 
	C424.219879,82.027397 440.204559,76.503906 457.722412,80.137215 
	C459.112732,80.425583 460.644623,80.031258 462.110718,79.954208 
	C465.835663,81.640221 469.560638,83.326233 473.694153,85.429504 
	C477.679565,91.231239 481.256439,96.615715 484.833313,102.000175 
	C487.840881,110.434807 489.749023,119.043968 488.653839,128.664444 
	C488.260590,130.181076 488.186737,131.112457 488.112915,132.043839 
	C488.066528,132.785690 488.020111,133.527527 487.654053,134.759537 
	C487.260559,136.181076 487.186737,137.112457 487.112915,138.043839 
	C487.067261,138.481079 487.021637,138.918335 486.610779,139.856567 
	C485.096680,143.606949 483.957428,146.859772 482.797485,150.105179 
	C470.440338,184.679901 451.705994,215.331543 426.508057,242.067245 
	C421.062897,247.844681 416.009857,254.005249 411.021027,260.186951 
	C410.110291,261.315399 410.385071,263.400574 410.112579,265.044128 
	C409.504791,268.547882 410.704254,271.062531 413.135925,273.867554 
	C420.232697,282.053925 423.270416,292.306274 425.954956,302.561554 
	C431.425079,323.458038 429.646912,343.830658 419.813293,363.044403 
	C414.190826,374.030060 406.253693,383.361023 396.538147,391.336487 
	C387.087585,399.094391 377.162781,405.603363 365.440460,409.193909 
	C347.826080,414.589172 330.226196,415.665314 313.542419,406.612640 
	C306.884613,403.000122 301.298706,397.412079 295.066528,392.044739 
	C293.573853,389.930878 292.239532,388.495605 290.905212,387.060303 
	C290.905212,387.060303 290.971893,387.028229 290.934998,386.685242 
	C290.113403,383.334351 289.735046,379.989716 285.506439,379.835419 
	C285.506439,379.835419 285.244781,379.751434 285.291504,379.249695 
	C284.618896,376.756836 284.106110,374.658142 283.136505,372.797485 
	C281.214722,369.109650 278.641449,365.721130 277.040100,361.913391 
	C270.009369,345.195526 263.309479,328.338531 256.289734,311.615936 
	C254.922379,308.358490 252.665161,305.474609 250.818405,302.418427 
	C247.563965,308.251068 245.914993,313.469299 243.947998,318.564728 
	C234.817780,342.216309 225.431503,365.748871 209.186386,385.719452 
	C197.224136,400.425018 182.281052,408.974213 162.820404,409.072479 
	C145.103577,409.161926 129.084152,404.261627 114.307648,394.646698 
	C112.438904,393.430756 109.792480,393.409973 107.506378,392.835419 
	C107.506378,392.835419 107.249290,392.757111 107.289062,392.251373 
	C107.423759,387.704681 104.483315,388.125427 101.885544,388.042480 
z"/>
<path fill="#FF2E43" opacity="1.000000" stroke="none" 
	d="
M461.955933,79.629303 
	C460.644623,80.031258 459.112732,80.425583 457.722412,80.137215 
	C440.204559,76.503906 424.219879,82.027397 408.231445,88.054871 
	C384.477081,97.010010 366.102417,113.888306 347.065765,129.653702 
	C334.542389,140.025055 322.482086,151.066986 311.089905,162.668304 
	C290.652740,183.480682 271.606415,205.484772 259.332642,232.420105 
	C258.163239,234.986359 257.455353,237.779129 256.134186,240.253708 
	C255.382156,241.662262 253.788055,243.597672 252.632385,243.558273 
	C251.295959,243.512680 249.534119,241.807755 248.808823,240.388077 
	C245.408264,233.731934 242.449982,226.849487 239.036926,220.200226 
	C236.685165,215.618576 233.782333,211.322769 231.267960,206.819824 
	C230.491791,205.429810 230.183746,203.778397 229.749252,201.879105 
	C235.895538,212.216034 241.963989,222.914856 247.998886,233.632599 
	C248.706802,234.889832 249.230011,236.251053 250.239075,238.427200 
	C251.686096,236.832565 253.191940,235.852951 253.712830,234.495407 
	C259.904877,218.357758 269.172089,204.031387 279.930786,190.691772 
	C288.181122,180.462265 296.418701,170.072144 305.837494,160.969894 
	C320.679840,146.626389 336.150970,132.872375 352.038727,119.691841 
	C363.937225,109.820786 376.508728,100.619415 389.517578,92.267838 
	C402.718292,83.793083 417.354370,77.929970 433.109314,76.137825 
	C440.683533,75.276237 448.447937,75.775368 456.102539,76.146729 
	C458.048553,76.241127 459.904022,78.201439 461.955933,79.629303 
z"/>
<path fill="#FF2E43" opacity="1.000000" stroke="none" 
	d="
M139.953888,111.628677 
	C136.132980,109.718033 131.984787,107.771248 128.240906,105.229050 
	C108.718552,91.972870 87.858887,81.605293 64.140335,79.326248 
	C35.761116,76.599365 18.682703,91.435425 17.099245,120.196266 
	C15.580014,147.790573 26.539698,171.892914 39.809799,195.124908 
	C43.440639,201.481430 47.639820,207.511169 51.444260,213.772247 
	C52.351700,215.265625 52.721592,217.085648 53.250793,219.121918 
	C47.843197,211.507187 42.167709,203.737122 37.279430,195.499908 
	C27.689594,179.340088 19.999634,162.246933 15.559979,143.946533 
	C11.962043,129.115723 10.932627,114.121315 17.008938,99.498672 
	C22.338581,86.672874 31.747345,78.644585 45.434643,76.033264 
	C63.383217,72.608948 80.119865,77.276077 96.475037,84.141808 
	C111.002121,90.240135 124.079102,98.751709 136.564545,108.240059 
	C137.745209,109.137291 138.734818,110.285927 139.953888,111.628677 
z"/>
<path fill="#FF2E43" opacity="1.000000" stroke="none" 
	d="
M107.704956,393.086609 
	C109.792480,393.409973 112.438904,393.430756 114.307648,394.646698 
	C129.084152,404.261627 145.103577,409.161926 162.820404,409.072479 
	C182.281052,408.974213 197.224136,400.425018 209.186386,385.719452 
	C225.431503,365.748871 234.817780,342.216309 243.947998,318.564728 
	C245.914993,313.469299 247.563965,308.251068 250.818405,302.418427 
	C252.665161,305.474609 254.922379,308.358490 256.289734,311.615936 
	C263.309479,328.338531 270.009369,345.195526 277.040100,361.913391 
	C278.641449,365.721130 281.214722,369.109650 283.136505,372.797485 
	C284.106110,374.658142 284.618896,376.756836 285.250671,379.118469 
	C279.437134,369.106293 273.095123,359.007324 268.147003,348.266235 
	C262.446106,335.890961 258.012695,322.933838 252.907166,310.278503 
	C252.469513,309.193665 251.118774,308.477173 250.773422,308.146362 
	C242.734589,326.702209 235.334839,345.096588 226.829605,362.964752 
	C220.920898,375.378082 213.282135,386.975739 203.024353,396.403412 
	C187.991058,410.220215 170.441727,415.376892 150.031265,412.223358 
	C134.084808,409.759583 120.199936,403.528900 107.704956,393.086609 
z"/>
<path fill="#FF2E43" opacity="1.000000" stroke="none" 
	d="
M89.710297,262.150757 
	C94.898743,263.461151 98.126778,270.952698 94.501259,274.706940 
	C83.807610,285.780273 81.144592,300.046051 78.366119,314.161652 
	C75.103317,330.737793 77.640839,346.830109 84.298050,362.301941 
	C85.651428,365.447266 86.991859,368.598175 88.250656,372.117767 
	C81.429108,364.433960 77.838646,354.853790 75.483521,344.865936 
	C69.677887,320.244843 74.361290,297.111694 87.321915,275.825165 
	C90.169418,271.148438 92.041969,267.530487 89.710297,262.150757 
z"/>
<path fill="#FF2E43" opacity="1.000000" stroke="none" 
	d="
M410.425354,264.901733 
	C410.385071,263.400574 410.110291,261.315399 411.021027,260.186951 
	C416.009857,254.005249 421.062897,247.844681 426.508057,242.067245 
	C451.705994,215.331543 470.440338,184.679901 482.797485,150.105179 
	C483.957428,146.859772 485.096680,143.606949 486.539429,140.178864 
	C483.324982,150.757889 480.635803,161.873566 476.126312,172.193863 
	C468.342651,190.007294 458.745972,206.929260 446.401001,222.098297 
	C439.669556,230.369690 432.712616,238.457474 425.866943,246.636047 
	C420.815979,252.670456 415.780518,258.717804 410.425354,264.901733 
z"/>
<path fill="#FF2E43" opacity="1.000000" stroke="none" 
	d="
M484.902283,101.622086 
	C481.256439,96.615715 477.679565,91.231239 474.051178,85.506721 
	C475.487183,86.417908 477.410034,87.401398 478.376617,88.973015 
	C480.805176,92.921661 482.801544,97.136101 484.902283,101.622086 
z"/>
<path fill="#FF2E43" opacity="1.000000" stroke="none" 
	d="
M285.687317,380.106873 
	C289.735046,379.989716 290.113403,383.334351 290.918976,386.718597 
	C289.249268,384.856049 287.558746,382.617188 285.687317,380.106873 
z"/>
<path fill="#FF2E43" opacity="1.000000" stroke="none" 
	d="
M88.687485,373.107117 
	C92.743805,372.992615 93.112518,376.353516 93.933548,379.737122 
	C92.261215,377.869263 90.564842,375.624023 88.687485,373.107117 
z"/>
<path fill="#FF2E43" opacity="1.000000" stroke="none" 
	d="
M229.312622,200.893082 
	C225.264816,201.010300 224.886642,197.665512 224.081024,194.281326 
	C225.750702,196.143875 227.441223,198.382751 229.312622,200.893082 
z"/>
<path fill="#FF2E43" opacity="1.000000" stroke="none" 
	d="
M102.020355,388.344238 
	C104.483315,388.125427 107.423759,387.704681 107.248138,392.123383 
	C105.496689,391.216095 103.825928,389.931030 102.020355,388.344238 
z"/>
<path fill="#FF2E43" opacity="1.000000" stroke="none" 
	d="
M85.027313,255.355560 
	C88.351135,255.397171 89.338646,257.685791 89.250092,261.117798 
	C87.831772,259.549042 86.500404,257.608826 85.027313,255.355560 
z"/>
<path fill="#FF2E43" opacity="1.000000" stroke="none" 
	d="
M154.975357,123.650711 
	C153.449356,122.855957 151.784286,121.754440 150.088684,120.277855 
	C151.650864,121.049835 153.243576,122.196884 154.975357,123.650711 
z"/>
<path fill="#FF2E43" opacity="1.000000" stroke="none" 
	d="
M149.958069,119.633392 
	C148.436005,118.843506 146.777344,117.747520 145.088409,116.277161 
	C146.645920,117.044289 148.233719,118.185791 149.958069,119.633392 
z"/>
<path fill="#FF2E43" opacity="1.000000" stroke="none" 
	d="
M144.958069,115.633392 
	C143.436005,114.843506 141.777344,113.747520 140.088409,112.277161 
	C141.645920,113.044296 143.233704,114.185791 144.958069,115.633392 
z"/>
<path fill="#FF2E43" opacity="1.000000" stroke="none" 
	d="
M60.039711,228.366989 
	C61.239529,229.495636 62.573845,230.930908 63.932877,232.740356 
	C62.696468,231.634232 61.435337,230.153931 60.039711,228.366989 
z"/>
<path fill="#FF2E43" opacity="1.000000" stroke="none" 
	d="
M291.039673,387.366943 
	C292.239532,388.495605 293.573853,389.930878 294.932892,391.740356 
	C293.696472,390.634216 292.435303,389.153900 291.039673,387.366943 
z"/>
<path fill="#FF2E43" opacity="1.000000" stroke="none" 
	d="
M223.970245,193.645248 
	C222.952438,192.705093 221.810104,191.470551 220.752167,189.872925 
	C221.839600,190.790192 222.842651,192.070541 223.970245,193.645248 
z"/>
<path fill="#FF2E43" opacity="1.000000" stroke="none" 
	d="
M56.679108,224.093842 
	C57.635124,225.006714 58.765614,226.178635 59.917946,227.722748 
	C58.911049,226.847595 57.882309,225.600235 56.679108,224.093842 
z"/>
<path fill="#FF2E43" opacity="1.000000" stroke="none" 
	d="
M220.320419,188.905243 
	C219.361099,187.987488 218.226776,186.809769 217.067413,185.258759 
	C218.076736,186.138733 219.111069,187.391998 220.320419,188.905243 
z"/>
<path fill="#FF2E43" opacity="1.000000" stroke="none" 
	d="
M53.670719,220.078094 
	C54.446781,220.813049 55.388020,221.790985 56.246193,223.129074 
	C55.387383,222.433167 54.611637,221.377121 53.670719,220.078094 
z"/>
<path fill="#FF2E43" opacity="1.000000" stroke="none" 
	d="
M487.417114,137.878815 
	C487.186737,137.112457 487.260559,136.181076 487.583862,135.124908 
	C487.795990,135.904678 487.758636,136.809235 487.417114,137.878815 
z"/>
<path fill="#FF2E43" opacity="1.000000" stroke="none" 
	d="
M488.417114,131.878815 
	C488.186737,131.112457 488.260590,130.181076 488.583862,129.124908 
	C488.795990,129.904678 488.758636,130.809235 488.417114,131.878815 
z"/>
</svg>